<svg width="1920" height="200" viewBox="0 0 1920 200" fill="none" xmlns="http://www.w3.org/2000/svg">
<path d="M1899.5 81.4472L1876.05 92.7256L1832.62 91.0772L1782.77 103.006L1691.14 94.0703L1647.71 105.999L1598.12 100.013L1528.63 108.992L1493.89 99.0588L1457.5 107.344L1426.84 102.703L1418.16 117.625L1399.57 130.638L1359.7 136.104L1331.82 133.284L1327.74 152.501L1303.51 164.603L1296.13 177.313L1228.99 200L1195.2 174.754L1143.09 177.14L1148.56 160.222L1125.98 145.777V133.848L1096.97 131.549L1053.54 135.28L1057.54 119.36L1045.03 102.008L1008.2 109.123L947.406 105.175L932.815 111.725L893.73 113.374L850.303 120.358L785.684 109.73L728.36 123.307L705.517 103.787L663.045 103.093L621.355 87.1731L599.729 67.6095L545.879 81.534L518.259 70.9497L475.874 69.952L445.562 61.9704L395.013 83.6595H365.222L328.83 89.9493L303.99 87.7804L257.436 90.0795L231.901 85.438L206.279 92.7256L167.194 93.0726L132.453 96.3693L91.3707 88.4311L55.413 94.7209L16.3286 87.0864C12.7187 90.3582 6.94768 92.9032 0 94.2872L0 82.1412C6.03544 81.9084 11.8789 80.9755 17.0656 79.4167C22.2524 77.8579 26.6394 75.7162 29.8779 73.1619L68.3543 80.7965L103.53 74.4199L144.091 82.3581L178.833 79.0614L217.136 78.7577L242.41 71.4702L267.598 76.1117L313.457 73.8126L337.95 76.1117L373.473 69.8652H403.351L453.379 47.9592L483.257 55.9408L525.121 57.0686L552.306 67.6529L605.461 53.7285L626.653 73.2921L667.822 89.2119L709.686 89.906L732.268 109.426L788.637 95.8488L852.388 106.476L894.599 99.3624L933.075 97.714L959.653 88.4311L1019.41 92.4219L1058.15 87.4334L1084.72 104.004L1080.73 119.924L1119.9 117.928L1148.47 120.271L1153.77 140.485L1173.66 149.161L1171.06 161.09L1210.84 163.085L1236.11 181.304L1279.54 161.393L1284.23 148.38L1302.81 140.138L1306.81 118.449L1343.29 120.748L1384.46 117.104L1405.74 97.5405L1415.03 84.5271L1451.51 93.81L1487.38 85.5248L1521.25 95.4584L1589.43 86.0887L1638.59 92.0749L1681.06 80.1459L1771.31 89.0818L1820.47 77.1527L1862.94 78.8011L1886.21 67.5228L1920 71.5136V83.833L1899.5 81.4472Z" fill="#442222"/>
<path d="M17.0656 79.4167C11.8789 80.9755 6.03544 81.9084 0 82.1412L0 0H1920V71.5136L1886.21 67.5228L1862.94 78.8011L1820.47 77.1527L1771.31 89.0818L1681.06 80.1459L1638.59 92.0749L1589.43 86.0887L1521.25 95.4584L1487.38 85.5248L1451.51 93.81L1415.03 84.5271L1405.74 97.5405L1384.46 117.104L1343.29 120.748L1306.81 118.449L1302.81 140.138L1284.23 148.38L1279.54 161.393L1236.11 181.304L1210.84 163.085L1171.06 161.09L1173.66 149.161L1153.77 140.485L1148.47 120.271L1119.9 117.928L1080.73 119.924L1084.72 104.004L1058.15 87.4334L1019.41 92.4219L959.653 88.4311L933.075 97.714L894.599 99.3624L852.388 106.476L788.637 95.8488L732.268 109.426L709.686 89.906L667.822 89.2119L626.653 73.2921L605.461 53.7285L552.306 67.6529L525.121 57.0686L483.257 55.9408L453.379 47.9592L403.351 69.8652H373.473L337.95 76.1117L313.457 73.8126L267.598 76.1117L242.41 71.4702L217.136 78.7577L178.833 79.0614L144.091 82.3581L103.53 74.4199L68.3543 80.7965L29.8779 73.1619C26.6394 75.7162 22.2524 77.8579 17.0656 79.4167Z" fill="#FF6666"/>
</svg>
