<svg width="1920" height="200" viewBox="0 0 1920 200" fill="none" xmlns="http://www.w3.org/2000/svg">
<path d="M1899.5 118.553L1876.05 107.274L1832.62 108.923L1782.77 96.9938L1691.14 105.93L1647.71 94.0007L1598.12 99.9869L1528.63 91.0076L1493.89 100.941L1457.5 92.656L1426.84 97.2974L1418.16 82.3753L1399.57 69.3619L1359.7 63.8962L1331.82 66.7158L1327.74 47.4992L1303.51 35.3967L1296.13 22.6868L1228.99 0L1195.2 25.2462L1143.09 22.8603L1148.56 39.7779L1125.98 54.2228V66.1519L1096.97 68.4509L1053.54 64.7204L1057.54 80.6402L1045.03 97.9915L1008.2 90.8775L947.406 94.8249L932.815 88.2748L893.73 86.6264L850.303 79.6425L785.684 90.2702L728.36 76.6928L705.517 96.213L663.045 96.907L621.355 112.827L599.729 132.39L545.879 118.466L518.259 129.05L475.874 130.048L445.562 138.03L395.013 116.341H365.222L328.83 110.051L303.99 112.22L257.436 109.921L231.901 114.562L206.279 107.274L167.194 106.927L132.453 103.631L91.3707 111.569L55.413 105.279L16.3286 112.914C12.7187 109.642 6.94768 107.097 0 105.713L0 117.859C6.03544 118.092 11.8789 119.024 17.0656 120.583C22.2524 122.142 26.6394 124.284 29.8779 126.838L68.3543 119.203L103.53 125.58L144.091 117.642L178.833 120.939L217.136 121.242L242.41 128.53L267.598 123.888L313.457 126.187L337.95 123.888L373.473 130.135H403.351L453.379 152.041L483.257 144.059L525.121 142.931L552.306 132.347L605.461 146.272L626.653 126.708L667.822 110.788L709.686 110.094L732.268 90.5738L788.637 104.151L852.388 93.5235L894.599 100.638L933.075 102.286L959.653 111.569L1019.41 107.578L1058.15 112.567L1084.72 95.9961L1080.73 80.0763L1119.9 82.0717L1148.47 79.7293L1153.77 59.515L1173.66 50.8393L1171.06 38.9103L1210.84 36.9149L1236.11 18.696L1279.54 38.6067L1284.23 51.6201L1302.81 59.862L1306.81 81.5511L1343.29 79.2521L1384.46 82.8959L1405.74 102.459L1415.03 115.473L1451.51 106.19L1487.38 114.475L1521.25 104.542L1589.43 113.911L1638.59 107.925L1681.06 119.854L1771.31 110.918L1820.47 122.847L1862.94 121.199L1886.21 132.477L1920 128.486V116.167L1899.5 118.553Z" fill="#442222"/>
<path d="M17.0656 120.583C11.8789 119.024 6.03544 118.092 0 117.859L0 200H1920V128.486L1886.21 132.477L1862.94 121.199L1820.47 122.847L1771.31 110.918L1681.06 119.854L1638.59 107.925L1589.43 113.911L1521.25 104.542L1487.38 114.475L1451.51 106.19L1415.03 115.473L1405.74 102.459L1384.46 82.8959L1343.29 79.2521L1306.81 81.5511L1302.81 59.862L1284.23 51.6201L1279.54 38.6067L1236.11 18.696L1210.84 36.9149L1171.06 38.9103L1173.66 50.8393L1153.77 59.515L1148.47 79.7293L1119.9 82.0717L1080.73 80.0763L1084.72 95.9961L1058.15 112.567L1019.41 107.578L959.653 111.569L933.075 102.286L894.599 100.638L852.388 93.5235L788.637 104.151L732.268 90.5738L709.686 110.094L667.822 110.788L626.653 126.708L605.461 146.272L552.306 132.347L525.121 142.931L483.257 144.059L453.379 152.041L403.351 130.135H373.473L337.95 123.888L313.457 126.187L267.598 123.888L242.41 128.53L217.136 121.242L178.833 120.939L144.091 117.642L103.53 125.58L68.3543 119.203L29.8779 126.838C26.6394 124.284 22.2524 122.142 17.0656 120.583Z" fill="#FF6666"/>
</svg>
