<svg width="59" height="59" viewBox="0 0 59 59" fill="none" xmlns="http://www.w3.org/2000/svg">
<path fill-rule="evenodd" clip-rule="evenodd" d="M33.0188 49.2931C43.8967 47.3751 51.16 37.0019 49.242 26.124C47.3239 15.2461 36.9507 7.98275 26.0729 9.90082C15.195 11.8189 7.93161 22.192 9.84967 33.0699C11.7677 43.9478 22.1409 51.2112 33.0188 49.2931ZM23.2326 22.5867C22.1448 22.7786 21.4185 23.8159 21.6103 24.9037C21.8021 25.9914 22.8394 26.7178 23.9272 26.526L30.005 25.4543L22.2294 36.559C21.5959 37.4638 21.8157 38.7109 22.7206 39.3445C23.6254 39.978 24.8725 39.7581 25.506 38.8533L33.2816 27.7486L34.3533 33.8264C34.5451 34.9142 35.5824 35.6405 36.6702 35.4487C37.758 35.2569 38.4843 34.2196 38.2925 33.1318L36.3824 22.2989C36.2903 21.7766 35.9944 21.3122 35.5599 21.0079C35.1254 20.7037 34.5879 20.5845 34.0655 20.6766L23.2326 22.5867Z" fill="white"/>
</svg>
