<svg width="123" height="123" viewBox="0 0 123 123" fill="none" xmlns="http://www.w3.org/2000/svg">
<path d="M75.3641 21.7664C76.2393 21.2562 77.3359 21.3246 78.1409 21.9397C78.9459 22.5547 79.3001 23.5947 79.0379 24.5733C75.7331 36.9072 80.6698 45.7817 84.6483 52.9335C84.7747 53.1607 84.9001 53.3862 85.0243 53.61L85.0253 53.6117C89.3451 61.4124 90.4819 72.0169 88.1785 80.6132C86.0705 88.4805 80.9487 95.1992 73.9337 99.2885C66.9179 103.378 58.5829 104.503 50.7629 102.407C42.9429 100.312 36.2867 95.1707 32.2557 88.1209C28.2253 81.072 27.149 72.6925 29.257 64.8253C30.3107 60.893 32.9173 56.4334 35.8543 52.571C38.7993 48.6979 42.305 45.1262 45.3953 43.0768C46.0622 42.6346 46.9005 42.5383 47.6503 42.8178C48.4001 43.0974 48.9708 43.7189 49.1854 44.4898C50.2617 48.3561 51.3182 51.2241 52.3655 53.3115C53.4188 55.411 54.3914 56.5759 55.2254 57.2032C56.2623 57.983 57.4498 58.187 59.3422 57.5974C57.419 49.5482 59.7409 41.7461 63.1324 35.5973C66.8179 28.9154 72.0213 23.7151 75.3641 21.7664Z" stroke="#EF9E48" stroke-width="5" stroke-linecap="round" stroke-linejoin="round"/>
<path d="M64.738 58.276C65.1508 59.487 64.5827 60.8143 63.4215 61.3515C59.8751 62.9925 55.893 63.9616 52.22 61.1991C50.5384 59.9343 49.1374 58.0273 47.8964 55.5536C47.0423 53.8513 46.2298 51.8111 45.4421 49.3998C43.6102 51.0605 41.6446 53.2166 39.8343 55.5974C37.0717 59.2305 34.8989 63.0879 34.0867 66.1194C32.3184 72.7187 33.2235 79.7404 36.5963 85.639C39.9685 91.5368 45.531 95.829 52.057 97.5776C58.583 99.3263 65.5463 98.3904 71.4157 94.9689C77.2859 91.5469 81.5806 85.9185 83.3489 79.3192C85.3327 71.9152 84.3148 62.6497 80.6512 56.034C80.4986 55.7591 80.3424 55.4788 80.1831 55.1932C76.8895 49.2864 72.3222 41.0955 73.0286 30.3225C71.1638 32.3632 69.1809 34.9837 67.5106 38.0121C64.1763 44.0572 62.3444 51.2544 64.738 58.276Z" fill="#EF9E48" stroke="white" stroke-width="5" stroke-linecap="round" stroke-linejoin="round"/>
</svg>
