<svg width="50" height="50" viewBox="0 0 50 50" fill="none" xmlns="http://www.w3.org/2000/svg">
<path fill-rule="evenodd" clip-rule="evenodd" d="M24.9969 5L24.7686 5.014C24.6884 5.02304 24.6068 5.03707 24.5283 5.056L24.304 5.124C24.1505 5.18053 24.0046 5.25576 23.8695 5.348L23.6772 5.498L23.1506 5.948C18.9293 9.44998 13.5512 11.2523 8.0693 11.002C7.62154 10.9816 7.17987 11.1118 6.81499 11.3718C6.45011 11.6318 6.18311 12.0065 6.05672 12.436C5.0727 15.7793 4.77166 19.286 5.17148 22.7478C5.5713 26.2096 6.66383 29.5558 8.38415 32.5875C10.1045 35.6193 12.4174 38.2747 15.1857 40.396C17.9539 42.5173 21.1208 44.0612 24.4983 44.936C24.8279 45.0213 25.1739 45.0213 25.5036 44.936C28.8809 44.061 32.0476 42.5169 34.8156 40.3955C37.5836 38.2741 39.8963 35.6187 41.6165 32.5869C43.3366 29.5552 44.4289 26.2091 44.8286 22.7474C45.2283 19.2857 44.9272 15.7791 43.9431 12.436C43.8168 12.0065 43.5498 11.6318 43.1849 11.3718C42.82 11.1118 42.3783 10.9816 41.9306 11.002L41.2457 11.022C35.9947 11.0986 30.8891 9.29913 26.8493 5.948L26.3386 5.512L26.1304 5.348C25.9953 5.25576 25.8493 5.18053 25.6958 5.124L25.4735 5.056L25.3514 5.03L25.2332 5.014L24.9969 5ZM33.4866 21.3379C34.2255 20.5169 34.1589 19.2523 33.3379 18.5134C32.5169 17.7745 31.2523 17.8411 30.5134 18.6621L22.9236 27.0952L19.4142 23.5858C18.6332 22.8047 17.3668 22.8047 16.5858 23.5858C15.8047 24.3668 15.8047 25.6332 16.5858 26.4142L21.5858 31.4142C21.9738 31.8022 22.5041 32.0137 23.0526 31.9993C23.6011 31.9849 24.1195 31.7458 24.4866 31.3379L33.4866 21.3379Z" fill="white"/>
</svg>
